Coordinates
version=1
nRows=14
nColumns=42
inDegrees=yes

Units are S.I. units (second, meters, Newtons, ...)
If the header above contains a line with 'inDegrees', this indicates whether rotational values are in degrees (yes) or radians (no).

endheader
time	pelvis_tilt	pelvis_list	pelvis_rotation	pelvis_tx	pelvis_ty	pelvis_tz	hip_flexion_r	hip_adduction_r	hip_rotation_r	knee_angle_r	knee_adduction_r	knee_angle_r_beta	ankle_angle_r	subtalar_angle_r	mtp_angle_r	hip_flexion_l	hip_adduction_l	hip_rotation_l	knee_angle_l	knee_adduction_l	knee_angle_l_beta	ankle_angle_l	subtalar_angle_l	mtp_angle_l	lumbar_extension	lumbar_bending	lumbar_rotation	arm_flex_r	arm_add_r	arm_rot_r	elbow_flex_r	pro_sup_r	wrist_flex_r	wrist_dev_r	arm_flex_l	arm_add_l	arm_rot_l	elbow_flex_l	pro_sup_l	wrist_flex_l	wrist_dev_l
      4.50000000	     -0.06552370	    -10.59468870	     -8.01569420	     -0.80649802	      0.82593196	      0.31986908	      3.74013647	     10.56556337	    -23.12125242	     20.72710648	     -2.24031426	      0.36175625	     22.06592788	     30.89519193	     -7.50166320	     29.40856078	    -23.66979862	    -28.69051641	     44.12966517	     -9.03929498	      0.77020795	     17.76124751	     28.11932903	     -7.50166320	    -26.75180581	      9.50679535	      2.50262226	     -8.30878908	     -2.76799243	    -11.95949647	    104.10542466	     90.00000001	      0.00000000	      0.00000000	      4.15877184	     -8.58290460	    -18.39733383	     45.94991713	     90.00000001	      0.00000000	      0.00000000
      4.51000000	      0.11752703	    -10.63131485	     -8.20651749	     -0.80344901	      0.82616101	      0.31883502	      3.21733095	     10.47867576	    -22.79675706	     20.56765324	     -2.17496185	      0.35897327	     22.33300279	     30.90170708	     -7.50163780	     28.83423357	    -23.58252128	    -28.87821830	     43.34232624	     -8.71782158	      0.75646630	     17.51556972	     28.50597753	     -7.50163780	    -26.88425650	      9.39304483	      2.48007699	     -8.29184822	     -2.70825742	    -12.17751538	    104.00010404	     90.00000001	      0.00000000	      0.00000000	      4.17741034	     -8.58932595	    -18.66646336	     45.60471662	     90.00000001	      0.00000000	      0.00000000
      4.52000000	      0.14074985	    -10.70062690	     -8.39882609	     -0.80042007	      0.82609811	      0.31771593	      2.92990159	     10.47206834	    -22.51880737	     20.51057973	     -2.23600926	      0.35797715	     22.45337988	     30.86348271	     -7.50161926	     28.48344246	    -23.48579171	    -28.93285833	     42.73541099	     -8.53416884	      0.74587363	     17.42520941	     28.65283662	     -7.50161926	    -26.81126746	      9.36446908	      2.48421999	     -8.30265697	     -2.70190141	    -12.31046951	    103.91877084	     90.00000001	      0.00000000	      0.00000000	      4.11573087	     -8.59536274	    -18.79732364	     45.45960791	     90.00000001	      0.00000000	      0.00000000
      4.53000000	      0.06617133	    -10.81765178	     -8.56672663	     -0.79731921	      0.82583355	      0.31649736	      2.77252745	     10.48361174	    -22.42217633	     20.54134178	     -2.26374317	      0.35851405	     22.48107150	     30.82109207	     -7.50161429	     28.36422704	    -23.46563149	    -28.89879528	     42.51480459	     -8.45936743	      0.74202332	     17.39554658	     28.63578111	     -7.50161429	    -26.63072500	      9.42597822	      2.40180024	     -8.38014642	     -2.73259435	    -12.40293938	    103.89729460	     90.00000001	      0.00000000	      0.00000000	      3.93368007	     -8.63173200	    -18.83748338	     45.37287392	     90.00000001	      0.00000000	      0.00000000
      4.54000000	     -0.00654989	    -10.91570587	     -8.76087075	     -0.79419465	      0.82570742	      0.31529791	      2.60376609	     10.52093579	    -22.24864275	     20.53427652	     -2.34548208	      0.35839073	     22.55451884	     30.78832719	     -7.50160911	     28.12871176	    -23.37866547	    -28.80125152	     42.19703457	     -8.37627807	      0.73647719	     17.35774328	     28.63577740	     -7.50160911	    -26.44380173	      9.44883267	      2.36616341	     -8.42994129	     -2.71607282	    -12.49887776	    103.84373224	     90.00000001	      0.00000000	      0.00000000	      3.76768156	     -8.65231597	    -18.88493515	     45.25707335	     90.00000001	      0.00000000	      0.00000000
      4.55000000	      0.53213490	    -10.71519366	     -9.08730985	     -0.79093860	      0.82693414	      0.31412973	      1.59469019	     10.16101735	    -21.31885466	     20.14916804	     -2.22145337	      0.35166932	     22.94040833	     30.48448341	     -7.50157008	     26.71344197	    -22.91239592	    -29.18145984	     41.29896269	     -8.12810421	      0.72080288	     17.03416182	     28.70973962	     -7.50157008	    -26.91745453	      8.94756783	      2.48527482	     -8.29491626	     -2.50743024	    -12.79193895	    103.58599421	     90.00000001	      0.00000000	      0.00000000	      4.01863864	     -8.66993848	    -19.19098141	     44.80341710	     90.00000001	      0.00000000	      0.00000000
      4.56000000	      0.44998875	    -10.79849041	     -9.27681359	     -0.78774282	      0.82691353	      0.31276292	      1.45677242	     10.16433421	    -21.19861962	     20.19189414	     -2.33595072	      0.35241503	     22.91912861	     30.42622045	     -7.50156530	     26.52039759	    -22.79172563	    -29.04676653	     41.22121420	     -8.16739182	      0.71944591	     17.02227988	     28.69485432	     -7.50156530	    -26.71247653	      8.97604228	      2.45211368	     -8.38254604	     -2.50314939	    -12.82304085	    103.56037369	     90.00000001	      0.00000000	      0.00000000	      3.86305917	     -8.68567760	    -19.21441830	     44.75396645	     90.00000001	      0.00000000	      0.00000000
      4.57000000	      0.58417508	    -10.68318065	     -9.58371932	     -0.78460758	      0.82756686	      0.31153059	      1.04872564	     10.02089169	    -20.63729545	     20.04425257	     -2.51948933	      0.34983820	     22.99482249	     30.19242082	     -7.50154635	     25.74636114	    -22.40924003	    -28.89284036	     40.70445815	     -7.92354169	      0.71042682	     17.05942217	     28.60957986	     -7.50154635	    -26.72202989	      8.67165827	      2.46669512	     -8.33289446	     -2.38494116	    -12.88675138	    103.37593987	     90.00000001	      0.00000000	      0.00000000	      3.87895191	     -8.74575130	    -19.30364298	     44.58150742	     90.00000001	      0.00000000	      0.00000000
      4.58000000	      0.51680324	    -10.75949468	     -9.77932000	     -0.78138831	      0.82775306	      0.31001491	      0.89020093	      9.98650292	    -20.55159914	     20.09782908	     -2.56829573	      0.35077329	     22.96865818	     30.12875848	     -7.50154317	     25.53454724	    -22.28416317	    -28.74470455	     40.73911858	     -7.98326770	      0.71103175	     17.03056973	     28.57154580	     -7.50154317	    -26.52134596	      8.71099060	      2.46098303	     -8.39461987	     -2.36001271	    -12.89596979	    103.35282793	     90.00000001	      0.00000000	      0.00000000	      3.75669753	     -8.74717424	    -19.31565212	     44.53908450	     90.00000001	      0.00000000	      0.00000000
      4.59000000	      0.80281165	    -10.54216095	    -10.09611507	     -0.77811846	      0.82881667	      0.30867701	      0.35253558	      9.70458273	    -19.90140980	     20.02298296	     -2.78597475	      0.34946698	     22.91397405	     29.78000763	     -7.50152860	     24.52445090	    -21.80055480	    -28.46655319	     40.31196636	     -7.54144188	      0.70357654	     17.12857213	     28.27498143	     -7.50152860	    -26.67252314	      8.27837336	      2.44295973	     -8.40069902	     -2.19588998	    -12.87968650	    103.19046533	     90.00000001	      0.00000000	      0.00000000	      3.77029594	     -8.86153706	    -19.40084289	     44.31079203	     90.00000001	      0.00000000	      0.00000000
      4.60000000	      1.37415127	    -10.34832504	    -10.40440276	     -0.77460083	      0.83051613	      0.30704319	     -0.65396262	      9.17436708	    -19.17153049	     19.82474530	     -2.42839264	      0.34600708	     22.64003137	     28.74282372	     -7.50148427	     23.12571829	    -21.22996463	    -28.56576522	     39.75872316	     -7.33395047	      0.69392063	     16.96982343	     27.25539532	     -7.50148427	    -27.13074975	      7.84190341	      2.51856131	     -8.35780735	     -2.11040714	    -12.88926965	    103.09238711	     90.00000001	      0.00000000	      0.00000000	      3.84126275	     -8.86397302	    -19.50360529	     44.16535649	     90.00000001	      0.00000000	      0.00000000
      4.61000000	      1.40934819	    -10.26753285	    -10.72189906	     -0.77147243	      0.83135058	      0.30561199	     -0.86502670	      9.03082068	    -18.86797290	     19.89139083	     -2.62133809	      0.34717026	     22.42761523	     28.40546891	     -7.50146654	     22.54198955	    -20.96622020	    -28.22122945	     39.54596671	     -6.95066958	      0.69020732	     17.05443708	     27.06412838	     -7.50146654	    -27.02932518	      7.63007651	      2.55353673	     -8.36600907	     -2.04053945	    -12.77774373	    103.01591390	     90.00000001	      0.00000000	      0.00000000	      3.79034939	     -8.92652439	    -19.52483472	     44.08721632	     90.00000001	      0.00000000	      0.00000000
      4.62000000	      1.70158935	    -10.11940005	    -11.01116901	     -0.76821435	      0.83276243	      0.30400586	     -1.39532916	      8.67338901	    -18.45123428	     19.92241853	     -2.58175334	      0.34771180	     22.03169943	     27.71079606	     -7.50143805	     21.53818621	    -20.54904084	    -27.98158090	     39.11698537	     -6.48771055	      0.68272019	     17.15004267	     26.38030134	     -7.50143805	    -27.20001691	      7.31437918	      2.57780125	     -8.37127166	     -1.96970615	    -12.64860112	    102.93388528	     90.00000001	      0.00000000	      0.00000000	      3.82292787	     -8.98024082	    -19.54852667	     43.98613224	     90.00000001	      0.00000000	      0.00000000
      4.63000000	      1.91575197	     -9.99948391	    -11.29549758	     -0.76502629	      0.83414140	      0.30234830	     -1.82305088	      8.38399316	    -18.10708251	     19.95684954	     -2.61077288	      0.34831273	     21.61214556	     27.04787375	     -7.50140972	     20.66852205	    -20.16724941	    -27.82262156	     38.71000365	     -6.11726226	      0.67561702	     17.13496255	     25.77679625	     -7.50140972	    -27.28887410	      7.05843666	      2.61705093	     -8.38305341	     -1.90179136	    -12.51053044	    102.91019300	     90.00000001	      0.00000000	      0.00000000	      3.81024883	     -9.04245711	    -19.56859162	     43.93992157	     90.00000001	      0.00000000	      0.00000000
